<svg xmlns="http://www.w3.org/2000/svg" xmlns:xlink="http://www.w3.org/1999/xlink" width="100" zoomAndPan="magnify" viewBox="0 0 75 74.999997" height="100" preserveAspectRatio="xMidYMid meet" version="1.0"><defs><g/><clipPath id="0c0fe3a945"><path d="M 0 4 L 75 4 L 75 71.625 L 0 71.625 Z M 0 4 " clip-rule="nonzero"/></clipPath></defs><path fill="#ff0000" d="M 32.367188 56.488281 C 32.359375 56.488281 32.34375 56.488281 32.335938 56.488281 C 32.246094 56.480469 32.175781 56.425781 32.140625 56.34375 C 31.53125 54.886719 30.328125 51.195312 32.328125 48.4375 C 32.367188 48.378906 32.4375 48.339844 32.511719 48.339844 C 32.519531 48.339844 32.519531 48.339844 32.527344 48.339844 C 32.589844 48.339844 32.65625 48.371094 32.703125 48.421875 C 32.992188 48.742188 33.320312 48.957031 33.683594 49.054688 C 33.867188 49.101562 34.074219 49.132812 34.292969 49.132812 C 34.773438 49.132812 35.308594 49.007812 35.800781 48.78125 C 35.832031 48.765625 35.863281 48.757812 35.902344 48.757812 C 35.9375 48.757812 35.976562 48.765625 36 48.78125 C 36.0625 48.8125 36.113281 48.871094 36.128906 48.933594 C 36.328125 49.632812 36.496094 51.035156 35.398438 52.574219 C 34.277344 54.148438 33.136719 55.65625 32.558594 56.410156 C 32.511719 56.449219 32.445312 56.488281 32.367188 56.488281 Z M 32.367188 56.488281 " fill-opacity="1" fill-rule="nonzero"/><path fill="#ff0000" d="M 42.570312 50.625 C 40.722656 50.625 38.199219 50.273438 36.601562 48.582031 C 36.554688 48.53125 36.53125 48.46875 36.539062 48.40625 C 36.539062 48.339844 36.570312 48.277344 36.617188 48.234375 C 36.691406 48.179688 36.746094 48.117188 36.800781 48.058594 C 37.113281 47.738281 37.316406 47.386719 37.402344 47.007812 C 37.429688 46.898438 37.53125 46.824219 37.636719 46.824219 C 37.652344 46.824219 37.667969 46.824219 37.683594 46.832031 C 37.699219 46.832031 37.714844 46.839844 37.722656 46.839844 C 37.757812 46.839844 37.789062 46.832031 37.820312 46.816406 C 37.835938 46.808594 38.214844 46.609375 38.824219 46.609375 C 39.472656 46.609375 40.476562 46.832031 41.574219 47.921875 C 42.464844 48.804688 43.394531 49.535156 44.34375 50.089844 C 44.429688 50.144531 44.476562 50.25 44.453125 50.34375 C 44.429688 50.449219 44.351562 50.523438 44.246094 50.53125 C 43.691406 50.601562 43.121094 50.625 42.570312 50.625 Z M 42.570312 50.625 " fill-opacity="1" fill-rule="nonzero"/><path fill="#ff0000" d="M 37.292969 45.339844 C 37.203125 45.339844 37.113281 45.292969 37.074219 45.210938 C 36.472656 44.015625 35.566406 43.625 35.308594 43.535156 C 35.292969 43.527344 35.277344 43.519531 35.261719 43.511719 C 35.261719 43.511719 35.253906 43.503906 35.253906 43.503906 C 35.183594 43.464844 35.132812 43.382812 35.132812 43.296875 C 35.132812 43.207031 35.175781 43.132812 35.253906 43.085938 C 35.613281 42.871094 35.886719 42.613281 36.082031 42.308594 C 36.121094 42.246094 36.191406 42.203125 36.265625 42.195312 C 36.273438 42.195312 36.28125 42.195312 36.28125 42.195312 C 36.351562 42.195312 36.417969 42.226562 36.464844 42.277344 C 36.519531 42.339844 36.609375 42.453125 36.714844 42.589844 C 36.722656 42.597656 36.722656 42.605469 36.730469 42.613281 C 36.738281 42.628906 36.746094 42.644531 36.761719 42.652344 C 36.769531 42.660156 36.777344 42.667969 36.777344 42.675781 C 37.171875 43.238281 37.628906 44.128906 37.539062 45.117188 C 37.53125 45.21875 37.453125 45.308594 37.347656 45.332031 C 37.316406 45.339844 37.300781 45.339844 37.292969 45.339844 Z M 37.292969 45.339844 " fill-opacity="1" fill-rule="nonzero"/><path fill="#ff0000" d="M 31.476562 46.503906 C 31.445312 46.503906 31.414062 46.496094 31.378906 46.480469 C 28.558594 45.234375 23.800781 44.804688 20.320312 44.488281 C 18.929688 44.363281 17.359375 44.226562 16.574219 44.058594 C 16.476562 44.03125 16.398438 43.953125 16.382812 43.855469 C 16.363281 43.753906 16.421875 43.65625 16.507812 43.609375 C 17.207031 43.238281 17.816406 43.175781 18.410156 43.109375 C 19.210938 43.023438 19.964844 42.933594 20.734375 42.125 C 21.21875 41.609375 21.851562 41.339844 22.550781 41.339844 C 23.167969 41.339844 23.640625 41.546875 23.6875 41.570312 C 23.710938 41.578125 23.734375 41.585938 23.761719 41.585938 C 27.082031 41.929688 30.585938 43.472656 31.933594 44.113281 C 31.988281 44.136719 32.039062 44.195312 32.0625 44.257812 C 32.085938 44.320312 32.078125 44.386719 32.046875 44.441406 C 31.917969 44.691406 31.804688 44.972656 31.71875 45.277344 C 31.652344 45.5 31.652344 45.828125 31.707031 46.214844 C 31.726562 46.304688 31.683594 46.390625 31.621094 46.449219 C 31.582031 46.488281 31.523438 46.503906 31.476562 46.503906 Z M 31.476562 46.503906 " fill-opacity="1" fill-rule="nonzero"/><path fill="#ff0000" d="M 34.300781 48.71875 C 34.113281 48.71875 33.945312 48.691406 33.792969 48.652344 C 33.21875 48.492188 32.824219 47.964844 32.589844 47.546875 C 32.117188 46.6875 32.003906 45.734375 32.101562 45.398438 C 32.238281 44.949219 32.40625 44.570312 32.617188 44.28125 C 32.617188 44.28125 32.617188 44.273438 32.625 44.273438 C 32.625 44.265625 32.632812 44.265625 32.632812 44.257812 C 32.632812 44.25 32.640625 44.25 32.640625 44.242188 C 32.863281 43.945312 33.121094 43.734375 33.417969 43.625 C 33.585938 43.558594 33.761719 43.535156 33.945312 43.535156 C 34.574219 43.535156 35.09375 43.871094 35.09375 43.871094 C 35.109375 43.878906 35.125 43.886719 35.140625 43.898438 C 35.199219 43.914062 36.441406 44.289062 36.988281 46.0625 C 37.179688 46.679688 37.011719 47.273438 36.519531 47.777344 C 35.984375 48.332031 35.070312 48.71875 34.300781 48.71875 Z M 34.300781 48.71875 " fill-opacity="1" fill-rule="nonzero"/><path fill="#cccccc" d="M 47.960938 30.460938 C 47.871094 30.460938 47.78125 30.421875 47.71875 30.355469 C 47.070312 29.628906 46.195312 28.96875 45.199219 28.449219 C 45.070312 28.375 45 28.230469 45.039062 28.085938 C 45.070312 27.941406 45.199219 27.847656 45.351562 27.847656 L 73.707031 27.847656 C 73.851562 27.847656 73.980469 27.941406 74.019531 28.078125 C 74.058594 28.214844 73.996094 28.367188 73.875 28.441406 C 72.703125 29.136719 71.910156 30.003906 71.621094 30.347656 C 71.558594 30.421875 71.46875 30.460938 71.371094 30.460938 Z M 47.960938 30.460938 " fill-opacity="1" fill-rule="nonzero"/><path fill="#cccccc" d="M 46.875 27.597656 C 46.78125 27.597656 46.683594 27.550781 46.621094 27.46875 C 46.554688 27.390625 46.539062 27.285156 46.5625 27.1875 C 46.738281 26.539062 47.292969 24.855469 48.671875 23.1875 C 51.085938 20.273438 54.730469 18.800781 59.5 18.800781 C 64.257812 18.800781 67.914062 20.292969 70.378906 23.242188 C 71.683594 24.808594 72.285156 26.378906 72.535156 27.179688 C 72.566406 27.277344 72.542969 27.382812 72.488281 27.460938 C 72.421875 27.542969 72.335938 27.589844 72.230469 27.589844 L 46.875 27.589844 Z M 46.875 27.597656 " fill-opacity="1" fill-rule="nonzero"/><path fill="#ffffff" d="M 23.671875 26.925781 C 23.617188 26.925781 23.558594 26.910156 23.511719 26.875 C 23.191406 26.691406 22.703125 26.46875 22.179688 26.46875 C 22.035156 26.46875 21.890625 26.484375 21.761719 26.523438 C 21.738281 26.53125 21.707031 26.53125 21.683594 26.53125 C 21.625 26.53125 21.570312 26.515625 21.523438 26.492188 C 21.449219 26.453125 21.394531 26.378906 21.371094 26.296875 L 21 24.910156 C 20.992188 24.871094 20.984375 24.832031 20.992188 24.789062 C 20.992188 24.789062 20.992188 24.78125 20.992188 24.78125 C 20.992188 24.757812 20.984375 24.734375 20.96875 24.710938 C 20.945312 24.679688 20.929688 24.644531 20.921875 24.605469 L 20.472656 22.929688 C 20.457031 22.875 20.40625 22.839844 20.359375 22.839844 C 20.351562 22.839844 20.335938 22.839844 20.328125 22.851562 C 20.285156 22.859375 20.261719 22.890625 20.253906 22.90625 C 20.246094 22.921875 20.230469 22.953125 20.246094 22.996094 L 20.566406 24.171875 C 20.59375 24.277344 20.566406 24.390625 20.496094 24.46875 C 20.429688 24.542969 20.34375 24.582031 20.253906 24.582031 C 20.238281 24.582031 20.222656 24.582031 20.207031 24.582031 C 17.441406 24.199219 15.675781 23.242188 14.976562 21.742188 C 13.847656 19.351562 15.84375 16.3125 15.867188 16.28125 C 15.890625 16.25 15.890625 16.199219 15.875 16.160156 C 15.859375 16.136719 14.457031 13.121094 17.648438 9.375 C 19.804688 6.839844 22.964844 6.464844 24.660156 6.464844 C 25.574219 6.464844 26.160156 6.566406 26.167969 6.566406 C 26.167969 6.566406 26.175781 6.566406 26.183594 6.566406 C 26.222656 6.566406 26.269531 6.542969 26.285156 6.503906 C 26.335938 6.421875 27.496094 4.5625 30.835938 4.5625 C 31.484375 4.5625 32.175781 4.632812 32.894531 4.769531 C 36.433594 5.445312 37.652344 7.554688 38.070312 8.757812 C 38.078125 8.78125 38.085938 8.804688 38.085938 8.828125 C 38.085938 8.84375 38.09375 8.859375 38.101562 8.871094 C 38.109375 8.886719 38.117188 8.910156 38.125 8.933594 C 38.246094 9.335938 38.277344 9.597656 38.277344 9.632812 C 38.277344 9.664062 38.292969 9.695312 38.324219 9.710938 C 38.351562 9.726562 38.375 9.734375 38.398438 9.734375 C 38.40625 9.734375 38.40625 9.734375 38.414062 9.734375 C 38.453125 9.726562 38.613281 9.710938 38.855469 9.710938 C 40.019531 9.710938 42.859375 10.128906 44.09375 13.996094 C 44.726562 15.984375 44.40625 17.757812 43.121094 19.265625 C 42.519531 19.976562 41.832031 20.460938 41.367188 20.742188 C 41.316406 20.773438 41.261719 20.789062 41.199219 20.789062 C 41.148438 20.789062 41.101562 20.78125 41.0625 20.757812 C 40.964844 20.707031 40.902344 20.621094 40.886719 20.507812 C 40.707031 19.152344 40.316406 18.621094 40.300781 18.597656 C 40.273438 18.566406 40.242188 18.550781 40.203125 18.550781 C 40.1875 18.550781 40.15625 18.558594 40.132812 18.574219 C 40.097656 18.597656 40.082031 18.640625 40.082031 18.65625 C 40.082031 18.679688 40.082031 18.710938 40.105469 18.742188 C 40.113281 18.75 40.675781 19.496094 40.734375 21.605469 C 40.773438 23.121094 40.121094 24.148438 39.738281 24.621094 C 39.671875 24.695312 39.585938 24.742188 39.488281 24.742188 C 39.488281 24.742188 39.480469 24.742188 39.480469 24.742188 C 39.375 24.742188 39.289062 24.6875 39.234375 24.605469 C 38.566406 23.652344 36.980469 22.054688 33.875 22.054688 C 33.714844 22.054688 33.546875 22.0625 33.386719 22.070312 C 30.160156 22.238281 27.699219 23.605469 26.199219 24.71875 C 25.058594 25.570312 24.296875 26.394531 23.945312 26.8125 C 23.855469 26.882812 23.769531 26.925781 23.671875 26.925781 Z M 23.671875 26.925781 " fill-opacity="1" fill-rule="nonzero"/><path fill="#ffffff" d="M 35.253906 70.285156 C 35.109375 70.285156 34.980469 70.1875 34.949219 70.054688 C 34.242188 67.566406 31.988281 66.148438 31.316406 65.769531 C 31.210938 65.714844 31.15625 65.609375 31.15625 65.488281 C 31.15625 65.425781 31.15625 65.359375 31.148438 65.304688 C 31.125 64.871094 30.792969 64.34375 30.183594 63.78125 C 30.089844 63.691406 30.054688 63.546875 30.105469 63.425781 C 30.113281 63.402344 30.113281 63.378906 30.113281 63.363281 C 28.773438 56.683594 26.421875 51.484375 25.734375 50.046875 C 25.691406 49.96875 25.691406 49.871094 25.726562 49.792969 C 25.757812 49.710938 25.820312 49.640625 25.902344 49.609375 L 31.765625 47.28125 C 31.804688 47.265625 31.84375 47.257812 31.886719 47.257812 C 32.003906 47.257812 32.117188 47.320312 32.175781 47.441406 C 32.207031 47.507812 32.246094 47.585938 32.285156 47.667969 C 32.359375 47.804688 32.328125 47.972656 32.207031 48.066406 C 32.191406 48.082031 32.183594 48.089844 32.175781 48.089844 C 31.003906 49.609375 30.632812 51.660156 31.097656 54.019531 C 31.453125 55.800781 32.132812 57.089844 32.167969 57.148438 C 32.183594 57.179688 32.222656 57.203125 32.261719 57.210938 C 32.269531 57.210938 32.269531 57.210938 32.277344 57.210938 C 32.320312 57.210938 32.351562 57.195312 32.375 57.164062 C 32.375 57.164062 32.382812 57.148438 32.398438 57.132812 C 32.808594 56.601562 34.257812 54.707031 35.664062 52.734375 C 36.34375 51.789062 36.65625 50.777344 36.601562 49.734375 C 36.59375 49.609375 36.65625 49.496094 36.769531 49.4375 C 36.816406 49.414062 36.867188 49.398438 36.921875 49.398438 C 36.988281 49.398438 37.058594 49.421875 37.113281 49.464844 C 38.773438 50.699219 40.988281 50.953125 42.5625 50.953125 C 44.253906 50.953125 45.578125 50.667969 45.730469 50.632812 C 45.777344 50.625 45.816406 50.578125 45.816406 50.523438 C 45.816406 50.464844 45.785156 50.417969 45.738281 50.402344 C 45.738281 50.402344 45.730469 50.402344 45.730469 50.402344 C 45.546875 50.335938 43.835938 49.679688 41.832031 47.691406 C 40.902344 46.769531 39.875 46.277344 38.871094 46.277344 C 38.589844 46.277344 38.316406 46.320312 38.0625 46.390625 C 38.03125 46.398438 38.003906 46.40625 37.972656 46.40625 C 37.886719 46.40625 37.796875 46.367188 37.734375 46.304688 C 37.652344 46.214844 37.628906 46.085938 37.667969 45.972656 C 38.011719 45.066406 37.925781 44.105469 37.402344 43.09375 C 37.347656 42.992188 37.355469 42.871094 37.410156 42.773438 C 37.46875 42.675781 37.570312 42.621094 37.683594 42.621094 C 37.683594 42.621094 37.683594 42.621094 37.691406 42.621094 C 38.878906 42.636719 41.117188 42.878906 42.769531 44.21875 C 45.160156 46.160156 49.925781 47.539062 50.125 47.59375 C 50.132812 47.59375 50.148438 47.601562 50.15625 47.601562 C 50.179688 47.601562 50.195312 47.59375 50.214844 47.585938 C 50.246094 47.570312 50.261719 47.546875 50.269531 47.515625 C 50.292969 47.425781 50.878906 45.371094 51.777344 43.457031 C 52.339844 42.269531 52.890625 41.457031 53.261719 40.984375 C 53.316406 40.914062 53.40625 40.863281 53.5 40.863281 C 53.507812 40.863281 53.507812 40.863281 53.519531 40.863281 C 53.605469 40.863281 53.6875 40.898438 53.75 40.960938 C 54.367188 41.609375 56.027344 43.175781 58.121094 43.746094 C 59.507812 44.121094 60.511719 44.203125 61.105469 44.203125 C 61.265625 44.203125 61.417969 44.195312 61.5625 44.183594 C 61.570312 44.183594 61.578125 44.183594 61.585938 44.183594 C 61.667969 44.183594 61.753906 44.21875 61.8125 44.273438 C 61.875 44.335938 61.914062 44.425781 61.90625 44.523438 C 61.789062 46.488281 61.210938 53.242188 58.585938 57.453125 C 56.796875 60.324219 55.441406 61.445312 53.742188 61.445312 C 52.578125 61.445312 51.257812 60.910156 49.765625 60.257812 C 49.714844 60.234375 49.667969 60.203125 49.636719 60.15625 C 49.605469 60.105469 49.570312 60.058594 49.53125 60.019531 L 49.5 59.96875 C 48.214844 58.199219 47.78125 57.605469 47.582031 55.175781 C 47.542969 54.75 47.492188 54.339844 47.421875 53.953125 C 47.414062 53.898438 47.359375 53.859375 47.300781 53.859375 C 47.292969 53.859375 47.285156 53.859375 47.277344 53.859375 C 47.214844 53.875 47.164062 53.929688 47.179688 54.003906 C 47.253906 54.378906 47.300781 54.78125 47.339844 55.199219 C 47.550781 57.691406 47.992188 58.300781 49.308594 60.113281 C 49.84375 60.851562 50.511719 61.773438 51.375 63.121094 C 51.464844 63.257812 51.433594 63.445312 51.3125 63.546875 C 46.722656 67.285156 41.191406 69.621094 35.308594 70.292969 C 35.277344 70.285156 35.261719 70.285156 35.253906 70.285156 Z M 35.253906 70.285156 " fill-opacity="1" fill-rule="nonzero"/><path fill="#ffffff" d="M 21.023438 70.484375 C 19.339844 70.484375 17.59375 70.367188 15.84375 70.117188 C 11.335938 69.492188 8.390625 68.136719 6.84375 65.984375 C 5.601562 64.253906 5.257812 62.023438 5.800781 59.152344 C 6.898438 53.320312 13.027344 46.175781 13.726562 45.378906 C 13.742188 45.355469 13.765625 45.339844 13.789062 45.324219 C 14.738281 44.707031 15.636719 44.394531 15.980469 44.289062 C 16.011719 44.28125 16.042969 44.273438 16.074219 44.273438 C 16.109375 44.273438 16.140625 44.28125 16.171875 44.289062 C 16.832031 44.5 18.160156 44.625 20.296875 44.820312 C 23.679688 45.125 28.324219 45.539062 31.089844 46.703125 C 31.210938 46.753906 31.292969 46.871094 31.285156 47 C 31.285156 47.128906 31.203125 47.25 31.082031 47.296875 L 25.378906 49.566406 C 25.347656 49.582031 25.324219 49.609375 25.316406 49.640625 C 25.300781 49.671875 25.308594 49.703125 25.324219 49.734375 C 25.347656 49.792969 28.125 55.140625 29.742188 62.683594 C 29.769531 62.808594 29.71875 62.945312 29.605469 63.019531 C 29.550781 63.050781 29.496094 63.074219 29.429688 63.074219 C 29.367188 63.074219 29.300781 63.058594 29.246094 63.019531 C 28.339844 62.375 27.128906 61.703125 25.828125 61.117188 C 23.3125 59.996094 20.617188 59.242188 18.035156 58.9375 C 17.863281 58.917969 17.746094 58.765625 17.753906 58.597656 L 17.90625 55.855469 C 17.90625 55.816406 17.890625 55.785156 17.871094 55.769531 C 17.855469 55.75 17.832031 55.726562 17.792969 55.726562 C 17.71875 55.726562 17.671875 55.777344 17.664062 55.839844 L 17.511719 58.550781 C 17.503906 58.640625 17.464844 58.71875 17.398438 58.777344 C 17.34375 58.824219 17.261719 58.855469 17.191406 58.855469 C 17.183594 58.855469 17.175781 58.855469 17.167969 58.855469 C 16.644531 58.816406 16.132812 58.792969 15.636719 58.792969 C 15.464844 58.792969 15.289062 58.792969 15.121094 58.800781 C 15.058594 58.800781 15 58.855469 15 58.917969 C 15 58.984375 15.058594 59.039062 15.121094 59.039062 C 15.289062 59.03125 15.464844 59.03125 15.636719 59.03125 C 18.753906 59.03125 22.4375 59.875 25.726562 61.335938 C 28.726562 62.664062 30.859375 64.308594 30.914062 65.328125 C 31.019531 67.140625 29.710938 68.808594 29.3125 69.273438 C 29.269531 69.316406 29.222656 69.347656 29.175781 69.371094 C 28.621094 69.554688 25.683594 70.484375 21.023438 70.484375 Z M 21.023438 70.484375 " fill-opacity="1" fill-rule="nonzero"/><path fill="#ffcd92" d="M 32.34375 43.839844 C 32.308594 43.839844 32.269531 43.832031 32.238281 43.816406 C 31.1875 43.304688 27.496094 41.601562 23.914062 41.203125 C 23.816406 41.195312 23.734375 41.121094 23.710938 41.035156 C 23.6875 40.945312 23.710938 40.839844 23.792969 40.777344 C 24.578125 40.125 24.929688 39.210938 25.089844 38.554688 C 25.117188 38.472656 25.171875 38.402344 25.261719 38.378906 C 25.285156 38.371094 25.308594 38.371094 25.332031 38.371094 C 25.394531 38.371094 25.453125 38.394531 25.5 38.433594 C 26.015625 38.921875 26.625 39.347656 27.320312 39.710938 C 28.84375 40.496094 30.785156 40.929688 32.785156 40.929688 C 33.820312 40.929688 34.828125 40.816406 35.785156 40.59375 C 35.800781 40.585938 35.824219 40.585938 35.839844 40.585938 C 35.894531 40.585938 35.953125 40.601562 35.992188 40.640625 C 36.046875 40.6875 36.082031 40.761719 36.082031 40.839844 C 36.023438 41.90625 35.679688 42.460938 34.796875 42.886719 C 34.75 42.910156 34.707031 42.949219 34.691406 43.007812 C 34.660156 43.109375 34.5625 43.183594 34.460938 43.183594 C 34.445312 43.183594 34.429688 43.183594 34.410156 43.175781 C 34.257812 43.144531 34.105469 43.125 33.953125 43.125 C 33.722656 43.125 33.503906 43.167969 33.296875 43.238281 C 33.015625 43.34375 32.757812 43.511719 32.535156 43.753906 C 32.472656 43.816406 32.40625 43.839844 32.34375 43.839844 Z M 32.34375 43.839844 " fill-opacity="1" fill-rule="nonzero"/><path fill="#ffcd92" d="M 32.757812 40.535156 C 30.828125 40.535156 28.949219 40.117188 27.480469 39.355469 C 26.550781 38.875 25.789062 38.273438 25.203125 37.558594 C 25.195312 37.550781 25.1875 37.542969 25.1875 37.535156 C 25.179688 37.519531 25.164062 37.503906 25.148438 37.488281 C 25.140625 37.480469 25.132812 37.472656 25.125 37.464844 C 24.03125 36.066406 23.671875 34.304688 24.039062 32.234375 C 24.058594 32.152344 24.015625 32.066406 23.945312 32.027344 C 23.914062 32.007812 23.878906 32 23.839844 32 C 23.792969 32 23.753906 32.019531 23.710938 32.050781 C 23.457031 32.257812 23.167969 32.363281 22.863281 32.363281 C 22.460938 32.363281 22.109375 32.179688 21.890625 32.019531 C 20.898438 31.320312 20.199219 29.667969 20.734375 28.121094 C 20.984375 27.40625 21.355469 26.980469 21.820312 26.84375 C 21.929688 26.8125 22.050781 26.796875 22.171875 26.796875 C 22.765625 26.796875 23.382812 27.164062 23.625 27.359375 C 23.664062 27.390625 23.703125 27.40625 23.753906 27.40625 C 23.761719 27.40625 23.769531 27.40625 23.777344 27.40625 C 23.832031 27.398438 23.878906 27.367188 23.914062 27.324219 C 23.945312 27.277344 27.378906 22.722656 33.359375 22.402344 C 33.511719 22.394531 33.675781 22.382812 33.828125 22.382812 C 37.476562 22.382812 38.902344 24.695312 39.152344 25.160156 C 39.167969 25.183594 39.175781 25.207031 39.175781 25.238281 L 39.800781 29.234375 C 39.808594 29.289062 39.84375 29.339844 39.890625 29.371094 C 39.90625 29.378906 39.914062 29.386719 39.921875 29.402344 C 40.210938 29.683594 41.214844 31.542969 41.109375 32.25 C 41.109375 32.265625 41.109375 32.273438 41.109375 32.28125 L 41.117188 34.398438 C 41.117188 36.453125 40.042969 37.761719 39.585938 38.226562 C 38.398438 39.429688 36.378906 40.246094 34.035156 40.480469 C 33.625 40.519531 33.191406 40.535156 32.757812 40.535156 Z M 32.757812 40.535156 " fill-opacity="1" fill-rule="nonzero"/><path fill="#ffcd92" d="M 31.683594 70.414062 C 30.769531 70.414062 29.824219 70.375 28.871094 70.285156 C 28.757812 70.277344 28.660156 70.1875 28.652344 70.070312 C 28.644531 69.957031 28.710938 69.84375 28.820312 69.8125 C 29.140625 69.714844 29.335938 69.644531 29.390625 69.621094 C 29.414062 69.613281 29.4375 69.59375 29.464844 69.570312 C 29.480469 69.554688 30.777344 68.167969 31.140625 66.410156 C 31.15625 66.332031 31.210938 66.265625 31.285156 66.234375 C 31.316406 66.21875 31.347656 66.21875 31.378906 66.21875 C 31.429688 66.21875 31.46875 66.234375 31.507812 66.257812 C 32.398438 66.828125 33.988281 68.070312 34.597656 69.980469 C 34.621094 70.054688 34.605469 70.125 34.5625 70.1875 C 34.523438 70.253906 34.460938 70.285156 34.386719 70.292969 C 33.488281 70.375 32.582031 70.414062 31.683594 70.414062 Z M 31.683594 70.414062 " fill-opacity="1" fill-rule="nonzero"/><path fill="#ffcd92" d="M 59.789062 43.777344 C 59.773438 43.777344 59.765625 43.777344 59.75 43.777344 C 59.261719 43.703125 58.730469 43.582031 58.1875 43.441406 C 56.171875 42.894531 54.542969 41.347656 53.933594 40.710938 C 53.863281 40.632812 53.847656 40.519531 53.902344 40.421875 L 55.363281 37.890625 C 55.410156 37.808594 55.394531 37.695312 55.316406 37.632812 C 55.304688 37.625 54.109375 36.582031 54.023438 34.730469 C 53.949219 33.324219 53.019531 31.890625 52.476562 31.167969 C 52.417969 31.09375 52.410156 31 52.449219 30.917969 C 52.492188 30.839844 52.570312 30.78125 52.667969 30.78125 L 55.1875 30.78125 C 55.257812 30.78125 55.324219 30.816406 55.371094 30.863281 C 56.148438 31.746094 56.78125 32.355469 57.078125 32.507812 C 57.136719 32.539062 57.199219 32.554688 57.261719 32.554688 C 57.632812 32.554688 58.113281 32.097656 58.441406 31.761719 C 58.769531 31.417969 59.050781 31.0625 59.195312 30.878906 C 59.246094 30.824219 59.308594 30.78125 59.390625 30.78125 L 66.414062 30.78125 C 66.503906 30.78125 66.59375 30.832031 66.632812 30.910156 C 66.671875 30.992188 66.664062 31.085938 66.617188 31.160156 C 66.167969 31.785156 65.453125 32.90625 64.644531 34.703125 C 63.277344 37.703125 61.121094 38.898438 61.035156 38.949219 C 60.976562 38.980469 60.9375 39.027344 60.929688 39.085938 L 60.039062 43.582031 C 60.007812 43.695312 59.902344 43.777344 59.789062 43.777344 Z M 59.789062 43.777344 " fill-opacity="1" fill-rule="nonzero"/><path fill="#ffb600" d="M 57.296875 32.128906 C 57.246094 32.128906 57.199219 32.113281 57.160156 32.089844 C 56.902344 31.914062 56.453125 31.449219 56.203125 31.183594 C 56.140625 31.113281 56.125 31.015625 56.15625 30.925781 C 56.195312 30.839844 56.285156 30.78125 56.382812 30.78125 L 58.25 30.78125 C 58.347656 30.78125 58.433594 30.839844 58.464844 30.925781 C 58.507812 31.015625 58.492188 31.113281 58.425781 31.183594 C 58.21875 31.417969 57.710938 31.96875 57.398438 32.113281 C 57.367188 32.121094 57.328125 32.128906 57.296875 32.128906 Z M 57.296875 32.128906 " fill-opacity="1" fill-rule="nonzero"/><path fill="#ffb600" d="M 61.097656 43.886719 C 60.953125 43.886719 60.808594 43.878906 60.65625 43.871094 C 60.585938 43.863281 60.519531 43.832031 60.480469 43.777344 C 60.441406 43.71875 60.421875 43.648438 60.433594 43.582031 L 61.265625 39.355469 C 61.28125 39.292969 61.320312 39.238281 61.378906 39.195312 C 61.546875 39.09375 61.890625 38.867188 62.308594 38.507812 C 62.355469 38.464844 62.414062 38.449219 62.46875 38.449219 C 62.5 38.449219 62.535156 38.457031 62.566406 38.472656 C 62.652344 38.515625 62.710938 38.59375 62.710938 38.691406 C 62.71875 38.949219 62.71875 39.171875 62.71875 39.382812 C 62.71875 40.792969 62.621094 42.21875 62.429688 43.625 C 62.421875 43.695312 62.382812 43.761719 62.316406 43.800781 C 62.277344 43.824219 62.238281 43.832031 62.1875 43.832031 C 62.164062 43.832031 62.132812 43.824219 62.109375 43.816406 C 62.085938 43.808594 62.058594 43.800781 62.035156 43.800781 C 62.019531 43.800781 61.996094 43.800781 61.980469 43.808594 C 61.972656 43.808594 61.972656 43.808594 61.964844 43.808594 C 61.921875 43.824219 61.636719 43.886719 61.097656 43.886719 Z M 61.097656 43.886719 " fill-opacity="1" fill-rule="nonzero"/><path fill="#ffb600" d="M 6.019531 56.640625 C 5.9375 56.640625 5.867188 56.601562 5.816406 56.539062 C 2.433594 51.445312 0.652344 45.515625 0.652344 39.382812 C 0.652344 34.152344 1.960938 28.992188 4.429688 24.476562 C 6.898438 19.960938 10.527344 16.089844 14.914062 13.265625 C 14.953125 13.242188 15 13.226562 15.042969 13.226562 C 15.082031 13.226562 15.128906 13.242188 15.167969 13.265625 C 15.25 13.3125 15.289062 13.410156 15.28125 13.496094 C 15.105469 14.742188 15.339844 15.65625 15.492188 16.089844 C 15.515625 16.152344 15.507812 16.234375 15.464844 16.289062 C 15.015625 17.035156 13.628906 19.648438 14.671875 21.871094 C 15.457031 23.539062 17.421875 24.574219 20.519531 24.941406 C 20.617188 24.953125 20.695312 25.023438 20.71875 25.121094 L 21.121094 26.59375 C 21.144531 26.683594 21.121094 26.773438 21.058594 26.835938 C 20.777344 27.101562 20.542969 27.484375 20.367188 27.984375 C 19.742188 29.78125 20.566406 31.570312 21.667969 32.347656 C 22.050781 32.621094 22.46875 32.761719 22.871094 32.761719 C 23 32.761719 23.125 32.746094 23.246094 32.722656 C 23.261719 32.714844 23.285156 32.714844 23.304688 32.714844 C 23.359375 32.714844 23.414062 32.738281 23.464844 32.773438 C 23.519531 32.820312 23.550781 32.898438 23.542969 32.972656 C 23.382812 34.777344 23.792969 36.339844 24.753906 37.632812 C 24.785156 37.679688 24.8125 37.738281 24.804688 37.800781 C 24.746094 38.363281 24.441406 40.230469 22.765625 40.929688 C 22.734375 40.945312 22.703125 40.945312 22.667969 40.945312 C 22.667969 40.945312 22.660156 40.945312 22.660156 40.945312 C 22.628906 40.945312 22.597656 40.945312 22.566406 40.945312 C 21.988281 40.945312 21.144531 41.105469 20.441406 41.851562 C 19.773438 42.558594 19.117188 42.628906 18.363281 42.71875 C 17.648438 42.796875 16.839844 42.886719 15.890625 43.511719 C 15.714844 43.632812 15.628906 43.761719 15.617188 43.898438 C 15.617188 43.992188 15.554688 44.082031 15.457031 44.121094 C 14.992188 44.296875 14.289062 44.601562 13.550781 45.089844 C 13.535156 45.101562 13.515625 45.117188 13.507812 45.132812 C 13.300781 45.363281 8.335938 50.988281 6.234375 56.496094 C 6.203125 56.578125 6.121094 56.640625 6.035156 56.648438 C 6.035156 56.640625 6.027344 56.640625 6.019531 56.640625 Z M 6.019531 56.640625 " fill-opacity="1" fill-rule="nonzero"/><path fill="#ffb600" d="M 49.851562 47.167969 C 49.828125 47.167969 49.804688 47.167969 49.78125 47.160156 C 48.359375 46.710938 44.855469 45.507812 42.960938 43.96875 C 41.171875 42.515625 38.800781 42.292969 37.546875 42.292969 C 37.394531 42.292969 37.25 42.292969 37.121094 42.300781 C 37.121094 42.300781 37.113281 42.300781 37.113281 42.300781 C 37.042969 42.300781 36.96875 42.269531 36.921875 42.203125 C 36.777344 42.019531 36.65625 41.890625 36.601562 41.835938 C 36.585938 41.820312 36.5625 41.804688 36.53125 41.789062 C 36.417969 41.746094 36.34375 41.625 36.367188 41.507812 C 36.425781 41.242188 36.457031 40.9375 36.457031 40.574219 C 36.457031 40.472656 36.53125 40.382812 36.625 40.351562 C 37.972656 39.925781 39.105469 39.285156 39.882812 38.492188 C 40.378906 37.984375 41.527344 36.582031 41.527344 34.382812 L 41.519531 32.289062 C 41.519531 32.28125 41.519531 32.273438 41.519531 32.257812 C 41.566406 31.855469 41.382812 31.183594 40.996094 30.382812 C 40.796875 29.949219 40.484375 29.394531 40.242188 29.128906 C 40.210938 29.097656 40.1875 29.050781 40.1875 29 L 39.609375 25.328125 C 39.59375 25.246094 39.625 25.167969 39.683594 25.121094 C 39.824219 24.984375 41.078125 23.738281 41.019531 21.589844 C 41.019531 21.550781 41.019531 21.519531 41.019531 21.484375 L 41.019531 21.429688 C 41.019531 21.332031 41.070312 21.253906 41.148438 21.207031 C 41.4375 21.0625 42.457031 20.5 43.324219 19.480469 C 44.269531 18.382812 45.214844 16.519531 44.375 13.882812 C 43.957031 12.558594 43.300781 11.507812 42.433594 10.738281 C 42.34375 10.65625 42.328125 10.53125 42.382812 10.433594 C 42.433594 10.359375 42.503906 10.320312 42.59375 10.320312 C 42.625 10.320312 42.648438 10.328125 42.679688 10.335938 C 47.316406 12.101562 51.503906 14.980469 54.808594 18.664062 C 54.867188 18.726562 54.882812 18.816406 54.855469 18.894531 C 54.832031 18.976562 54.769531 19.039062 54.6875 19.054688 C 53.902344 19.273438 53.15625 19.539062 52.46875 19.867188 C 50.871094 20.613281 49.507812 21.65625 48.425781 22.96875 C 46.851562 24.871094 46.316406 26.78125 46.195312 27.316406 C 46.171875 27.429688 46.074219 27.5 45.960938 27.5 L 44.855469 27.5 C 44.605469 27.5 44.398438 27.671875 44.34375 27.910156 C 44.285156 28.152344 44.40625 28.390625 44.628906 28.496094 C 45.472656 28.890625 46.675781 29.585938 47.605469 30.6875 C 47.644531 30.734375 47.703125 30.757812 47.757812 30.757812 L 51.527344 30.757812 C 51.59375 30.757812 51.664062 30.789062 51.703125 30.839844 C 51.777344 30.917969 53.527344 32.875 53.621094 34.730469 C 53.695312 36.21875 54.398438 37.214844 54.816406 37.679688 C 54.890625 37.761719 54.898438 37.871094 54.847656 37.960938 L 53.566406 40.199219 C 53.535156 40.246094 53.484375 40.289062 53.429688 40.3125 C 53.398438 40.320312 53.375 40.335938 53.347656 40.359375 C 53.253906 40.457031 52.378906 41.402344 51.480469 43.3125 C 50.808594 44.738281 50.316406 46.230469 50.085938 46.984375 C 50.070312 47.050781 50.019531 47.097656 49.964844 47.128906 C 49.933594 47.160156 49.890625 47.167969 49.851562 47.167969 Z M 49.851562 47.167969 " fill-opacity="1" fill-rule="nonzero"/><path fill="#cccccc" d="M 17.945312 59.199219 C 17.945312 59.199219 17.800781 56.640625 18.210938 55.148438 C 18.617188 53.667969 19.324219 53.015625 19.324219 53.015625 C 19.324219 53.015625 19.261719 56.046875 21.707031 58.222656 C 24.144531 60.394531 26.34375 61.4375 26.34375 61.4375 C 26.34375 61.4375 20.726562 59.183594 17.945312 59.199219 Z M 17.945312 59.199219 " fill-opacity="1" fill-rule="nonzero"/><path fill="#cccccc" d="M 31.117188 46.90625 C 31.117188 46.90625 24.769531 48.429688 23.960938 49.703125 C 23.152344 50.980469 24.296875 50.707031 26.023438 55.183594 C 27.753906 59.65625 28.132812 62.527344 28.132812 62.527344 L 29.839844 63.425781 C 29.839844 63.425781 29.109375 59.359375 27.972656 55.945312 C 26.832031 52.527344 25.5 49.488281 25.5 49.488281 C 25.5 49.488281 31.140625 48.285156 31.117188 46.90625 Z M 31.117188 46.90625 " fill-opacity="1" fill-rule="nonzero"/><path fill="#cccccc" d="M 50.429688 60.554688 C 50.429688 60.554688 49.171875 60.410156 48.085938 57.8125 C 47.003906 55.222656 47.953125 52.445312 47.953125 52.445312 C 47.953125 52.445312 48.222656 58.382812 53.019531 58.710938 C 57.816406 59.039062 59.550781 55.582031 59.550781 55.582031 C 59.550781 55.582031 57.464844 60.394531 55.242188 61.125 C 53.019531 61.855469 50.429688 60.554688 50.429688 60.554688 Z M 50.429688 60.554688 " fill-opacity="1" fill-rule="nonzero"/><path fill="#cccccc" d="M 51.859375 43.175781 C 51.859375 43.175781 50.222656 46.6875 50.117188 47.601562 C 50.011719 48.515625 51 50.730469 51 50.730469 C 51 50.730469 48.914062 48.796875 47.164062 47.617188 C 45.417969 46.4375 44.324219 45.628906 44.324219 45.628906 C 44.324219 45.628906 48 46.421875 48.847656 46.953125 C 49.707031 47.488281 50.207031 47.59375 50.207031 47.59375 Z M 51.859375 43.175781 " fill-opacity="1" fill-rule="nonzero"/><path fill="#cccccc" d="M 61.546875 47.945312 C 61.546875 47.945312 59.933594 48.148438 56.847656 46.953125 C 53.757812 45.75 52.996094 45.171875 52.996094 45.171875 C 52.996094 45.171875 55.609375 45.804688 57.273438 45.589844 C 58.933594 45.371094 59.042969 44.066406 59.042969 44.066406 L 62.027344 44.234375 C 62.019531 44.226562 62.828125 46.921875 61.546875 47.945312 Z M 61.546875 47.945312 " fill-opacity="1" fill-rule="nonzero"/><path fill="#cccccc" d="M 13.125 69.757812 C 13.125 69.757812 18.898438 70.566406 22.4375 68.945312 C 25.972656 67.324219 27.800781 64.476562 27.800781 64.476562 C 27.800781 64.476562 28.492188 68.785156 25.363281 70.207031 C 22.234375 71.625 14.710938 70.40625 13.125 69.757812 Z M 13.125 69.757812 " fill-opacity="1" fill-rule="nonzero"/><path fill="#cccccc" d="M 40.699219 69.148438 C 40.699219 69.148438 43.546875 68.375 45.578125 65.121094 C 47.613281 61.863281 47.566406 57.964844 47.566406 57.964844 C 47.566406 57.964844 51.007812 62.152344 51.3125 62.90625 C 51.617188 63.660156 50.621094 64.308594 50.621094 64.308594 C 50.621094 64.308594 45.222656 67.6875 43.796875 68.335938 C 42.367188 68.984375 40.699219 69.148438 40.699219 69.148438 Z M 40.699219 69.148438 " fill-opacity="1" fill-rule="nonzero"/><path fill="#cccccc" d="M 33.296875 17.941406 C 33.296875 17.941406 34.804688 17.859375 36.898438 19.875 C 38.992188 21.886719 38.34375 23.644531 38.34375 23.644531 L 39.191406 24.789062 C 39.191406 24.789062 40.539062 23.828125 40.707031 22.167969 C 40.875 20.507812 40.089844 18.742188 40.089844 18.742188 C 40.089844 18.742188 34.820312 17.105469 33.296875 17.941406 Z M 33.296875 17.941406 " fill-opacity="1" fill-rule="nonzero"/><path fill="#cccccc" d="M 40.105469 17.980469 C 40.105469 17.980469 41.488281 17.003906 41.855469 15.359375 C 42.222656 13.714844 41.710938 12.101562 41.710938 12.101562 C 41.710938 12.101562 43.15625 14.683594 42.851562 17.226562 C 42.546875 19.769531 41.503906 20.652344 41.503906 20.652344 L 40.964844 20.828125 Z M 40.105469 17.980469 " fill-opacity="1" fill-rule="nonzero"/><path fill="#cccccc" d="M 38.261719 9.640625 C 38.261719 9.640625 38.34375 10.632812 38.09375 11.804688 C 37.851562 12.976562 37.460938 13.816406 37.460938 13.816406 C 37.460938 13.816406 38.574219 12.976562 39.289062 11.734375 C 40.003906 10.488281 39.9375 9.75 39.9375 9.75 Z M 38.261719 9.640625 " fill-opacity="1" fill-rule="nonzero"/><path fill="#cccccc" d="M 19.773438 7.488281 C 19.773438 7.488281 22.726562 6.453125 25.40625 7.648438 C 28.082031 8.84375 27.988281 10.335938 27.988281 10.335938 C 27.988281 10.335938 28.242188 9.398438 27.617188 7.914062 C 26.984375 6.429688 24.996094 6.40625 24.996094 6.40625 C 24.996094 6.40625 20.359375 6.597656 19.773438 7.488281 Z M 19.773438 7.488281 " fill-opacity="1" fill-rule="nonzero"/><path fill="#cccccc" d="M 15.714844 15.75 C 15.714844 15.75 16.238281 16.601562 17.117188 17.324219 C 18 18.046875 18.691406 18.148438 18.691406 18.148438 C 18.691406 18.148438 17.746094 18.4375 16.597656 18.109375 C 15.441406 17.78125 14.9375 18.597656 14.9375 18.597656 Z M 15.714844 15.75 " fill-opacity="1" fill-rule="nonzero"/><path fill="#cccccc" d="M 20.792969 22.296875 C 20.792969 22.296875 19.523438 22.632812 18.089844 21.75 C 16.652344 20.867188 16.355469 19.457031 16.355469 19.457031 C 16.355469 19.457031 16.261719 23.148438 18.472656 24.246094 C 20.679688 25.34375 20.855469 24.042969 20.855469 24.042969 Z M 20.792969 22.296875 " fill-opacity="1" fill-rule="nonzero"/><path fill="#e8894c" d="M 61.296875 38.988281 C 61.296875 38.988281 60.382812 38.988281 59.363281 38.578125 C 58.347656 38.167969 58.066406 37.730469 58.066406 37.730469 C 58.066406 37.730469 60.109375 38.402344 61.890625 36.789062 C 63.671875 35.179688 65.300781 31.121094 66.015625 30.671875 C 66.726562 30.222656 67.074219 30.671875 67.074219 30.671875 C 67.074219 30.671875 64.851562 35.347656 63.855469 36.507812 C 62.863281 37.664062 61.296875 38.988281 61.296875 38.988281 Z M 61.296875 38.988281 " fill-opacity="1" fill-rule="nonzero"/><path fill="#e8894c" d="M 54.570312 41.570312 C 54.570312 41.570312 55.371094 42.261719 57.414062 41.339844 C 59.460938 40.414062 60.238281 38.609375 60.238281 38.609375 L 61.105469 38.789062 L 60.0625 44.128906 C 60.0625 44.128906 57.550781 43.574219 56.6875 43.261719 C 55.820312 42.949219 54.570312 41.570312 54.570312 41.570312 Z M 54.570312 41.570312 " fill-opacity="1" fill-rule="nonzero"/><path fill="#e8894c" d="M 23.9375 35.449219 C 23.9375 35.449219 25.628906 37.617188 27.972656 38.371094 C 30.3125 39.132812 31.539062 38.914062 31.539062 38.914062 C 31.539062 38.914062 32.75 39.492188 33.929688 39.8125 C 35.109375 40.136719 35.613281 40.117188 35.613281 40.117188 C 35.613281 40.117188 32.03125 41.644531 28.210938 40.117188 C 24.402344 38.601562 23.9375 35.449219 23.9375 35.449219 Z M 23.9375 35.449219 " fill-opacity="1" fill-rule="nonzero"/><path fill="#e8894c" d="M 23.976562 29.484375 C 23.976562 29.484375 23.449219 28.3125 22.40625 28.542969 C 21.363281 28.777344 21.5625 30.035156 21.5625 30.035156 C 21.5625 30.035156 21.601562 29.242188 22.855469 29.539062 C 24.105469 29.835938 24.570312 30.984375 24.570312 30.984375 Z M 23.976562 29.484375 " fill-opacity="1" fill-rule="nonzero"/><path fill="#e8894c" d="M 25.269531 27.253906 L 26.160156 29.402344 C 26.160156 29.402344 26.769531 26.683594 29.695312 24.566406 C 32.625 22.449219 35.191406 22.738281 35.191406 22.738281 C 35.191406 22.738281 34.027344 21.75 30.089844 23.042969 C 26.140625 24.339844 25.507812 26.265625 25.269531 27.253906 Z M 25.269531 27.253906 " fill-opacity="1" fill-rule="nonzero"/><path fill="#e8894c" d="M 28.195312 39.863281 C 28.195312 39.863281 28.886719 41.296875 30.539062 42.195312 C 32.191406 43.09375 33.609375 43.238281 33.609375 43.238281 L 32.664062 43.839844 C 32.664062 43.839844 30.707031 43.039062 27.9375 42.347656 C 25.171875 41.660156 23.304688 41.113281 23.304688 41.113281 C 23.304688 41.113281 24.175781 40.519531 24.464844 39.628906 C 24.746094 38.730469 25.058594 37.839844 25.058594 37.839844 C 25.058594 37.839844 26.976562 39.878906 28.195312 39.863281 Z M 28.195312 39.863281 " fill-opacity="1" fill-rule="nonzero"/><path fill="#e8894c" d="M 31.371094 65.96875 C 31.371094 65.96875 31.757812 67.1875 31.277344 68.410156 C 30.800781 69.628906 32.617188 70.484375 32.617188 70.484375 C 32.617188 70.484375 29.199219 70.453125 28.726562 70.285156 C 28.25 70.117188 28.210938 69.875 28.210938 69.875 C 28.210938 69.875 29.855469 69.425781 30.351562 68.152344 C 30.859375 66.882812 31.371094 65.96875 31.371094 65.96875 Z M 31.371094 65.96875 " fill-opacity="1" fill-rule="nonzero"/><path fill="#ffffff" d="M 53.507812 19.859375 C 53.507812 19.859375 57.359375 18.855469 62.972656 20.78125 C 68.589844 22.707031 69.617188 27.558594 69.617188 27.558594 L 72.496094 27.476562 C 72.496094 27.476562 72.007812 22.640625 67.335938 20.5625 C 62.667969 18.488281 59.445312 18.800781 57.792969 18.855469 C 56.140625 18.902344 53.507812 19.859375 53.507812 19.859375 Z M 53.507812 19.859375 " fill-opacity="1" fill-rule="nonzero"/><path fill="#000000" d="M 32.285156 47.667969 C 32.285156 47.667969 33.121094 48.253906 34.257812 47.5625 C 35.398438 46.871094 34.5625 44.949219 34.5625 44.949219 C 34.5625 44.949219 35.765625 46.054688 35.953125 47.265625 C 36.144531 48.46875 34.652344 48.996094 34.652344 48.996094 C 34.652344 48.996094 32.277344 49.0625 32.285156 47.667969 Z M 32.285156 47.667969 " fill-opacity="0.2" fill-rule="nonzero"/><path fill="#000000" d="M 17.960938 42.972656 C 17.960938 42.972656 19.628906 42.695312 23.167969 42.972656 C 26.703125 43.253906 29.101562 44.378906 29.101562 44.378906 C 29.101562 44.378906 23.296875 43.648438 20.542969 43.921875 C 17.792969 44.195312 17.0625 44.441406 17.0625 44.441406 L 16.109375 44.152344 C 16.117188 44.152344 16.605469 43.085938 17.960938 42.972656 Z M 17.960938 42.972656 " fill-opacity="0.2" fill-rule="nonzero"/><path fill="#000000" d="M 37.066406 47.378906 C 37.066406 47.378906 37.996094 48.292969 39.601562 48.863281 C 41.214844 49.429688 42.34375 49.480469 42.34375 49.480469 C 42.34375 49.480469 40.621094 48.917969 39.609375 48.101562 C 38.605469 47.273438 39.265625 46.472656 39.265625 46.472656 C 39.265625 46.472656 37.628906 46.199219 37.066406 47.378906 " fill-opacity="0.2" fill-rule="nonzero"/><path fill="#000000" d="M 31.386719 49.480469 C 31.386719 49.480469 32.34375 49.328125 32.785156 50.234375 C 33.226562 51.140625 32.65625 52.695312 32.65625 52.695312 C 32.65625 52.695312 33.464844 51.210938 33.664062 50.21875 C 33.867188 49.230469 33.921875 48.917969 33.921875 48.917969 L 32.65625 48.117188 Z M 31.386719 49.480469 " fill-opacity="0.2" fill-rule="nonzero"/><g clip-path="url(#0c0fe3a945)"><path fill="#4e1d0f" d="M 74.902344 27.863281 C 74.988281 28.214844 74.828125 28.5625 74.507812 28.730469 C 72.914062 29.5625 71.949219 30.832031 71.941406 30.847656 C 71.863281 30.957031 71.726562 31.023438 71.589844 31.023438 L 67.53125 31.023438 C 67.226562 31.375 66.320312 32.539062 65.210938 34.96875 C 64.652344 36.210938 63.960938 37.160156 63.320312 37.863281 C 63.320312 37.871094 63.320312 37.882812 63.320312 37.890625 C 63.34375 38.386719 63.351562 38.882812 63.351562 39.382812 C 63.351562 42.347656 62.941406 45.277344 62.132812 48.101562 C 62.117188 48.148438 62.09375 48.195312 62.066406 48.234375 C 61.644531 51.140625 60.785156 54.949219 59.035156 57.757812 C 57.425781 60.347656 56.101562 61.589844 54.609375 61.925781 C 54.351562 61.984375 54.09375 62.015625 53.832031 62.015625 C 53.832031 62.015625 53.832031 62.023438 53.824219 62.023438 C 47.871094 67.847656 40.003906 71.054688 31.667969 71.054688 C 29.976562 71.054688 28.285156 70.917969 26.632812 70.65625 C 26.582031 70.644531 26.527344 70.628906 26.488281 70.605469 C 25.117188 70.847656 23.296875 71.054688 21.074219 71.054688 C 19.492188 71.054688 17.710938 70.953125 15.746094 70.679688 C 11.078125 70.027344 8.015625 68.601562 6.371094 66.316406 C 5.03125 64.453125 4.664062 62.082031 5.230469 59.046875 C 5.335938 58.511719 5.472656 57.964844 5.648438 57.421875 C 5.625 57.394531 5.601562 57.371094 5.585938 57.339844 C 1.933594 52.046875 0.0117188 45.835938 0.0117188 39.382812 C 0.0117188 33.832031 1.46875 28.367188 4.222656 23.585938 C 6.890625 18.953125 10.726562 15.03125 15.304688 12.261719 C 15.3125 12.261719 15.320312 12.253906 15.332031 12.253906 C 15.652344 11.277344 16.21875 10.175781 17.207031 9.023438 C 18.609375 7.378906 20.617188 6.335938 23.015625 6.015625 C 24.363281 5.835938 25.46875 5.925781 25.964844 5.980469 C 26.535156 5.269531 28.5 3.375 32.992188 4.234375 C 35.785156 4.761719 37.226562 6.183594 37.933594 7.273438 C 38.207031 7.691406 38.398438 8.097656 38.527344 8.445312 C 41.824219 9.175781 44.96875 10.417969 47.878906 12.148438 C 50.78125 13.882812 53.382812 16.054688 55.601562 18.613281 C 56.8125 18.367188 58.121094 18.238281 59.5 18.238281 C 62.210938 18.238281 64.617188 18.726562 66.664062 19.691406 C 68.308594 20.46875 69.710938 21.550781 70.84375 22.914062 C 72.351562 24.726562 72.953125 26.523438 73.152344 27.277344 L 74.15625 27.277344 C 74.515625 27.277344 74.8125 27.511719 74.902344 27.863281 Z M 73.714844 28.160156 L 45.351562 28.160156 C 46.15625 28.578125 47.140625 29.21875 47.960938 30.132812 L 71.378906 30.132812 C 71.691406 29.765625 72.503906 28.882812 73.714844 28.160156 Z M 46.875 27.277344 L 72.238281 27.277344 C 71.996094 26.5 71.414062 24.96875 70.144531 23.441406 C 67.738281 20.570312 64.160156 19.121094 59.507812 19.121094 C 54.839844 19.121094 51.28125 20.554688 48.921875 23.394531 C 47.597656 25 47.0625 26.59375 46.875 27.277344 Z M 66.414062 31.023438 L 59.390625 31.023438 C 59.300781 31.144531 58.980469 31.535156 58.617188 31.921875 C 58.195312 32.363281 57.710938 32.796875 57.261719 32.796875 C 57.160156 32.796875 57.0625 32.773438 56.964844 32.722656 C 56.5 32.492188 55.570312 31.464844 55.1875 31.023438 L 52.667969 31.023438 C 53.261719 31.808594 54.191406 33.261719 54.265625 34.722656 C 54.351562 36.46875 55.46875 37.449219 55.476562 37.457031 C 55.636719 37.59375 55.675781 37.824219 55.570312 38.007812 L 54.109375 40.542969 C 54.730469 41.195312 56.308594 42.675781 58.25 43.207031 C 58.835938 43.367188 59.339844 43.472656 59.78125 43.535156 L 60.671875 39.035156 C 60.695312 38.90625 60.785156 38.796875 60.898438 38.730469 C 60.921875 38.722656 63.0625 37.550781 64.402344 34.601562 C 65.226562 32.820312 65.941406 31.679688 66.414062 31.023438 Z M 62.476562 39.382812 C 62.476562 39.15625 62.476562 38.921875 62.46875 38.699219 C 62.050781 39.050781 61.707031 39.285156 61.507812 39.414062 L 60.671875 43.640625 C 61.507812 43.6875 61.90625 43.582031 61.914062 43.582031 C 62.011719 43.550781 62.109375 43.558594 62.195312 43.59375 C 62.382812 42.195312 62.476562 40.792969 62.476562 39.382812 Z M 61.570312 44.515625 C 60.929688 44.5625 59.765625 44.539062 58.027344 44.058594 C 55.882812 43.472656 54.207031 41.914062 53.5 41.1875 C 53.171875 41.609375 52.621094 42.40625 52.058594 43.601562 C 51.160156 45.515625 50.574219 47.585938 50.574219 47.601562 C 50.542969 47.714844 50.46875 47.8125 50.367188 47.867188 C 50.261719 47.921875 50.140625 47.9375 50.027344 47.90625 C 49.828125 47.851562 44.992188 46.449219 42.5625 44.464844 C 40.972656 43.175781 38.800781 42.957031 37.675781 42.941406 C 38.101562 43.761719 38.421875 44.882812 37.957031 46.085938 C 38.695312 45.878906 40.285156 45.734375 42.039062 47.464844 C 44.085938 49.488281 45.816406 50.097656 45.832031 50.105469 C 46.019531 50.167969 46.148438 50.34375 46.128906 50.546875 C 46.121094 50.746094 45.976562 50.90625 45.785156 50.957031 C 45.535156 51.011719 40.21875 52.191406 36.914062 49.726562 C 36.960938 50.585938 36.777344 51.726562 35.917969 52.929688 C 34.292969 55.214844 32.640625 57.339844 32.625 57.363281 C 32.542969 57.46875 32.40625 57.53125 32.269531 57.53125 C 32.261719 57.53125 32.246094 57.53125 32.230469 57.53125 C 32.085938 57.515625 31.949219 57.429688 31.878906 57.300781 C 31.84375 57.242188 31.140625 55.902344 30.777344 54.082031 C 30.289062 51.636719 30.691406 49.496094 31.917969 47.898438 C 31.941406 47.867188 31.964844 47.84375 31.996094 47.820312 C 31.957031 47.738281 31.917969 47.660156 31.878906 47.578125 L 26.015625 49.90625 C 26.734375 51.402344 29.078125 56.59375 30.417969 63.292969 C 30.433594 63.378906 30.425781 63.46875 30.394531 63.539062 C 31.019531 64.125 31.421875 64.71875 31.453125 65.28125 C 31.453125 65.34375 31.460938 65.417969 31.460938 65.480469 C 32.230469 65.90625 34.507812 67.375 35.246094 69.957031 C 41.0625 69.289062 46.53125 66.988281 51.078125 63.285156 C 50.222656 61.953125 49.554688 61.03125 49.019531 60.292969 C 47.703125 58.480469 47.207031 57.796875 46.988281 55.207031 C 46.957031 54.804688 46.902344 54.410156 46.835938 54.042969 C 46.796875 53.800781 46.949219 53.578125 47.1875 53.53125 C 47.429688 53.488281 47.664062 53.640625 47.703125 53.882812 C 47.773438 54.285156 47.832031 54.699219 47.871094 55.132812 C 48.0625 57.476562 48.449219 58.003906 49.730469 59.769531 C 49.773438 59.835938 49.820312 59.890625 49.867188 59.953125 C 53.816406 61.679688 55.355469 62 58.289062 57.277344 C 60.882812 53.136719 61.457031 46.429688 61.570312 44.515625 Z M 58.25 31.023438 L 56.382812 31.023438 C 56.757812 31.417969 57.109375 31.761719 57.304688 31.898438 C 57.488281 31.808594 57.855469 31.457031 58.25 31.023438 Z M 53.355469 40.09375 L 54.640625 37.855469 C 54.222656 37.390625 53.460938 36.339844 53.390625 34.761719 C 53.300781 33.011719 51.625 31.121094 51.535156 31.023438 L 47.765625 31.023438 C 47.636719 31.023438 47.519531 30.96875 47.429688 30.871094 C 46.53125 29.8125 45.359375 29.128906 44.542969 28.746094 C 44.214844 28.59375 44.046875 28.238281 44.117188 27.886719 C 44.199219 27.535156 44.503906 27.285156 44.863281 27.285156 L 45.96875 27.285156 C 46.113281 26.675781 46.652344 24.765625 48.246094 22.839844 C 49.355469 21.503906 50.75 20.433594 52.378906 19.671875 C 53.085938 19.34375 53.839844 19.070312 54.640625 18.855469 C 51.34375 15.183594 47.1875 12.335938 42.609375 10.59375 C 43.386719 11.277344 44.125 12.300781 44.613281 13.84375 C 45.488281 16.585938 44.503906 18.527344 43.515625 19.671875 C 42.617188 20.722656 41.574219 21.292969 41.261719 21.453125 C 41.261719 21.511719 41.269531 21.558594 41.269531 21.613281 C 41.324219 23.859375 40.011719 25.175781 39.851562 25.328125 L 40.425781 29 C 40.75 29.355469 41.101562 30.070312 41.222656 30.308594 C 41.511719 30.910156 41.832031 31.746094 41.765625 32.324219 L 41.773438 34.40625 C 41.773438 36.695312 40.570312 38.160156 40.058594 38.683594 C 39.214844 39.542969 38.046875 40.183594 36.699219 40.609375 C 36.699219 40.960938 36.664062 41.289062 36.601562 41.585938 C 36.664062 41.609375 36.722656 41.644531 36.769531 41.691406 C 36.792969 41.714844 36.929688 41.851562 37.105469 42.082031 C 37.996094 42.042969 40.964844 42.050781 43.113281 43.800781 C 45.007812 45.339844 48.625 46.558594 49.851562 46.945312 C 50.078125 46.222656 50.574219 44.699219 51.265625 43.238281 C 52.210938 41.226562 53.140625 40.261719 53.179688 40.222656 C 53.230469 40.152344 53.292969 40.117188 53.355469 40.09375 Z M 51.769531 62.722656 C 52.082031 62.457031 52.386719 62.175781 52.683594 61.894531 C 52.097656 61.773438 51.488281 61.574219 50.839844 61.324219 C 51.121094 61.734375 51.433594 62.199219 51.769531 62.722656 Z M 42.867188 19.0625 C 44.070312 17.652344 44.375 15.976562 43.773438 14.097656 C 42.335938 9.589844 38.597656 10.039062 38.4375 10.0625 C 38.316406 10.082031 38.199219 10.046875 38.101562 9.976562 C 38.003906 9.902344 37.949219 9.792969 37.933594 9.671875 C 37.933594 9.640625 37.902344 9.398438 37.796875 9.039062 C 37.773438 8.988281 37.75 8.933594 37.75 8.878906 C 37.355469 7.746094 36.199219 5.75 32.816406 5.097656 C 28.097656 4.199219 26.597656 6.574219 26.535156 6.679688 C 26.4375 6.832031 26.253906 6.921875 26.078125 6.886719 C 26.03125 6.878906 20.914062 6.007812 17.863281 9.582031 C 14.832031 13.144531 16.125 15.992188 16.140625 16.023438 C 16.203125 16.167969 16.195312 16.328125 16.109375 16.457031 C 16.09375 16.488281 14.191406 19.367188 15.242188 21.605469 C 15.898438 23.003906 17.574219 23.890625 20.230469 24.261719 L 19.910156 23.082031 C 19.847656 22.851562 19.980469 22.601562 20.222656 22.546875 C 20.457031 22.480469 20.695312 22.617188 20.761719 22.859375 L 21.210938 24.535156 C 21.265625 24.605469 21.296875 24.695312 21.296875 24.789062 C 21.296875 24.808594 21.296875 24.824219 21.296875 24.832031 L 21.667969 26.21875 C 22.445312 26.011719 23.222656 26.347656 23.664062 26.613281 C 24.039062 26.164062 24.820312 25.328125 25.972656 24.46875 C 27.507812 23.332031 30.023438 21.933594 33.328125 21.757812 C 36.988281 21.566406 38.792969 23.484375 39.457031 24.4375 C 39.800781 24.011719 40.417969 23.050781 40.378906 21.628906 C 40.332031 19.679688 39.824219 18.960938 39.824219 18.953125 C 39.671875 18.757812 39.714844 18.488281 39.90625 18.335938 C 40.097656 18.179688 40.378906 18.222656 40.523438 18.414062 C 40.578125 18.488281 40.996094 19.0625 41.171875 20.476562 C 41.597656 20.226562 42.28125 19.761719 42.867188 19.0625 Z M 44.238281 50.296875 C 43.492188 49.855469 42.503906 49.160156 41.421875 48.089844 C 39.519531 46.214844 37.964844 47.015625 37.949219 47.023438 C 37.851562 47.082031 37.75 47.089844 37.644531 47.066406 C 37.539062 47.480469 37.324219 47.875 36.980469 48.226562 C 36.914062 48.292969 36.851562 48.355469 36.777344 48.414062 C 38.765625 50.53125 42.304688 50.507812 44.238281 50.296875 Z M 40.894531 32.210938 C 40.980469 31.625 40.058594 29.84375 39.777344 29.570312 C 39.671875 29.5 39.601562 29.394531 39.585938 29.273438 L 38.960938 25.28125 C 38.742188 24.878906 37.265625 22.441406 33.394531 22.640625 C 27.507812 22.953125 24.160156 27.421875 24.128906 27.460938 C 24.058594 27.558594 23.953125 27.621094 23.832031 27.636719 C 23.710938 27.65625 23.589844 27.621094 23.496094 27.542969 C 23.253906 27.347656 22.5 26.898438 21.898438 27.070312 C 21.507812 27.179688 21.195312 27.566406 20.976562 28.199219 C 20.472656 29.644531 21.121094 31.175781 22.042969 31.824219 C 22.355469 32.050781 22.980469 32.347656 23.582031 31.855469 C 23.664062 31.792969 23.761719 31.761719 23.863281 31.761719 C 23.945312 31.761719 24.015625 31.785156 24.089844 31.824219 C 24.25 31.921875 24.328125 32.097656 24.296875 32.28125 C 23.898438 34.550781 24.441406 36.171875 25.339844 37.328125 C 25.371094 37.359375 25.394531 37.390625 25.414062 37.421875 C 26.046875 38.210938 26.847656 38.761719 27.609375 39.15625 C 29.382812 40.070312 31.734375 40.472656 34.050781 40.246094 C 36.335938 40.023438 38.308594 39.226562 39.457031 38.066406 C 39.898438 37.617188 40.917969 36.375 40.917969 34.40625 L 40.910156 32.289062 C 40.886719 32.257812 40.886719 32.234375 40.894531 32.210938 Z M 37.292969 45.101562 C 37.371094 44.167969 36.929688 43.328125 36.578125 42.8125 C 36.554688 42.789062 36.539062 42.757812 36.519531 42.734375 C 36.433594 42.613281 36.351562 42.507812 36.289062 42.4375 C 36.089844 42.765625 35.792969 43.046875 35.382812 43.296875 C 35.390625 43.296875 35.390625 43.304688 35.398438 43.304688 C 35.65625 43.398438 36.640625 43.816406 37.292969 45.101562 Z M 36.34375 47.617188 C 36.777344 47.167969 36.914062 46.671875 36.753906 46.140625 C 36.25 44.5 35.125 44.144531 35.078125 44.136719 C 35.039062 44.128906 34.996094 44.105469 34.957031 44.082031 C 34.949219 44.082031 34.484375 43.785156 33.9375 43.785156 C 33.792969 43.785156 33.640625 43.808594 33.488281 43.863281 C 33.242188 43.960938 33.015625 44.136719 32.824219 44.402344 C 32.816406 44.410156 32.808594 44.425781 32.800781 44.433594 C 32.605469 44.699219 32.453125 45.050781 32.320312 45.476562 C 32.246094 45.726562 32.335938 46.625 32.785156 47.441406 C 32.992188 47.820312 33.34375 48.292969 33.84375 48.4375 C 34.582031 48.628906 35.71875 48.261719 36.34375 47.617188 Z M 35.207031 52.414062 C 36.25 50.957031 36.089844 49.632812 35.902344 48.980469 C 35.382812 49.222656 34.820312 49.359375 34.292969 49.359375 C 34.050781 49.359375 33.828125 49.328125 33.617188 49.269531 C 33.21875 49.160156 32.847656 48.917969 32.527344 48.566406 C 30.609375 51.21875 31.765625 54.796875 32.367188 56.242188 C 32.96875 55.460938 34.089844 53.972656 35.207031 52.414062 Z M 34.667969 42.675781 C 35.453125 42.292969 35.757812 41.835938 35.816406 40.839844 C 34.84375 41.066406 33.800781 41.1875 32.757812 41.1875 C 30.800781 41.1875 28.820312 40.785156 27.191406 39.941406 C 26.472656 39.566406 25.84375 39.125 25.316406 38.625 C 25.148438 39.332031 24.769531 40.289062 23.945312 40.976562 C 27.554688 41.378906 31.25 43.078125 32.351562 43.617188 C 32.597656 43.351562 32.886719 43.160156 33.207031 43.039062 C 33.648438 42.878906 34.082031 42.886719 34.453125 42.957031 C 34.476562 42.828125 34.554688 42.734375 34.667969 42.675781 Z M 34.355469 70.0625 C 33.761719 68.207031 32.199219 66.996094 31.363281 66.46875 C 30.996094 68.265625 29.695312 69.675781 29.632812 69.738281 C 29.582031 69.789062 29.527344 69.828125 29.472656 69.851562 C 29.429688 69.867188 29.238281 69.941406 28.886719 70.042969 C 29.816406 70.125 30.746094 70.171875 31.675781 70.171875 C 32.582031 70.171875 33.472656 70.132812 34.355469 70.0625 Z M 31.484375 45.210938 C 31.582031 44.882812 31.699219 44.59375 31.828125 44.328125 C 30.625 43.761719 27.074219 42.171875 23.726562 41.828125 C 23.679688 41.820312 23.632812 41.8125 23.582031 41.789062 C 23.519531 41.761719 22.027344 41.097656 20.90625 42.285156 C 20.078125 43.167969 19.238281 43.253906 18.425781 43.351562 C 17.855469 43.414062 17.269531 43.480469 16.613281 43.824219 C 17.382812 43.984375 18.929688 44.128906 20.335938 44.25 C 23.886719 44.570312 28.613281 44.996094 31.46875 46.253906 C 31.402344 45.855469 31.402344 45.476562 31.484375 45.210938 Z M 25.253906 49.261719 L 30.953125 46.992188 C 28.234375 45.847656 23.6875 45.4375 20.253906 45.132812 C 18 44.929688 16.742188 44.804688 16.066406 44.585938 C 15.753906 44.683594 14.882812 44.988281 13.957031 45.589844 C 13.414062 46.214844 7.195312 53.425781 6.105469 59.214844 C 5.585938 62 5.90625 64.148438 7.09375 65.808594 C 8.59375 67.886719 11.464844 69.203125 15.875 69.8125 C 23.449219 70.863281 28.316406 69.324219 29.046875 69.066406 C 29.359375 68.707031 30.675781 67.070312 30.570312 65.34375 C 30.53125 64.597656 28.757812 63.050781 25.566406 61.621094 C 22.109375 60.082031 18.296875 59.257812 15.105469 59.351562 C 14.863281 59.359375 14.65625 59.167969 14.648438 58.929688 C 14.640625 58.6875 14.832031 58.480469 15.074219 58.46875 C 15.738281 58.445312 16.4375 58.46875 17.152344 58.527344 L 17.304688 55.816406 C 17.320312 55.574219 17.527344 55.382812 17.769531 55.398438 C 18.007812 55.414062 18.203125 55.625 18.1875 55.863281 L 18.035156 58.605469 C 20.609375 58.910156 23.359375 59.671875 25.917969 60.8125 C 27.128906 61.351562 28.378906 62.023438 29.390625 62.738281 C 27.792969 55.292969 25.035156 49.929688 25.003906 49.871094 C 24.945312 49.761719 24.9375 49.632812 24.980469 49.511719 C 25.042969 49.40625 25.140625 49.3125 25.253906 49.261719 Z M 22.667969 40.703125 C 24.226562 40.054688 24.507812 38.296875 24.554688 37.769531 C 23.566406 36.445312 23.125 34.808594 23.296875 32.949219 C 22.71875 33.085938 22.101562 32.949219 21.515625 32.539062 C 20.34375 31.714844 19.460938 29.8125 20.125 27.902344 C 20.3125 27.367188 20.566406 26.949219 20.878906 26.660156 L 20.480469 25.183594 C 17.296875 24.808594 15.265625 23.722656 14.449219 21.976562 C 13.347656 19.640625 14.800781 16.921875 15.25 16.167969 C 15.097656 15.742188 14.847656 14.773438 15.035156 13.464844 C 6.164062 19.160156 0.890625 28.785156 0.890625 39.382812 C 0.890625 45.476562 2.664062 51.355469 6.019531 56.402344 C 8.136719 50.851562 13.101562 45.234375 13.339844 44.964844 C 13.363281 44.929688 13.398438 44.90625 13.429688 44.890625 C 14.183594 44.394531 14.90625 44.074219 15.386719 43.898438 C 15.386719 43.734375 15.464844 43.519531 15.761719 43.320312 C 16.757812 42.660156 17.59375 42.566406 18.339844 42.484375 C 19.074219 42.40625 19.660156 42.339844 20.269531 41.691406 C 21.007812 40.898438 21.90625 40.679688 22.667969 40.703125 Z M 22.667969 40.703125 " fill-opacity="1" fill-rule="nonzero"/></g><path fill="#4e1d0f" d="M 57.761719 18.558594 C 57.761719 18.558594 57.121094 16.417969 59.40625 16.417969 C 61.691406 16.417969 60.808594 18.71875 60.808594 18.71875 C 60.808594 18.71875 59.171875 18.300781 57.761719 18.558594 Z M 57.761719 18.558594 " fill-opacity="1" fill-rule="nonzero"/><path fill="#4e1d0f" d="M 40.699219 20.203125 C 40.699219 20.203125 39.394531 18.496094 35.542969 18.222656 C 31.691406 17.949219 30.417969 18.550781 30.417969 18.550781 C 30.417969 18.550781 32.125 17.46875 35.328125 17.386719 C 38.527344 17.308594 40.453125 18.285156 40.453125 18.285156 C 40.453125 18.285156 39.867188 19.527344 40.699219 20.203125 Z M 40.699219 20.203125 " fill-opacity="1" fill-rule="nonzero"/><path fill="#4e1d0f" d="M 34.074219 24.613281 L 34.257812 23.699219 C 34.257812 23.699219 33.433594 23.546875 32.597656 23.75 C 31.765625 23.949219 31.378906 24.671875 31.378906 24.671875 C 31.378906 24.671875 33.046875 24.238281 34.074219 24.613281 Z M 34.074219 24.613281 " fill-opacity="1" fill-rule="nonzero"/><path fill="#4e1d0f" d="M 36.898438 24.65625 L 36.960938 23.722656 C 36.960938 23.722656 37.796875 23.789062 38.550781 24.207031 C 39.304688 24.621094 39.488281 25.417969 39.488281 25.417969 C 39.488281 25.417969 37.988281 24.558594 36.898438 24.65625 Z M 36.898438 24.65625 " fill-opacity="1" fill-rule="nonzero"/><path fill="#4e1d0f" d="M 34.257812 26.195312 C 34.257812 26.195312 34.234375 26.484375 33.320312 26.765625 C 32.398438 27.042969 31.546875 26.699219 31.546875 26.699219 C 31.546875 26.699219 32.253906 27.421875 33.359375 27.207031 C 34.46875 26.980469 34.257812 26.195312 34.257812 26.195312 Z M 34.257812 26.195312 " fill-opacity="1" fill-rule="nonzero"/><path fill="#4e1d0f" d="M 37.035156 26.195312 C 37.035156 26.195312 37.058594 26.484375 37.972656 26.765625 C 38.894531 27.042969 39.746094 26.699219 39.746094 26.699219 C 39.746094 26.699219 39.039062 27.421875 37.933594 27.207031 C 36.816406 26.980469 37.035156 26.195312 37.035156 26.195312 Z M 37.035156 26.195312 " fill-opacity="1" fill-rule="nonzero"/><path fill="#4e1d0f" d="M 37.363281 27.398438 C 37.363281 27.566406 37.386719 27.734375 37.410156 27.894531 C 37.445312 28.0625 37.484375 28.222656 37.539062 28.382812 C 37.597656 28.542969 37.667969 28.703125 37.765625 28.859375 C 37.859375 29.011719 37.988281 29.152344 38.148438 29.273438 L 38.277344 29.355469 C 38.292969 29.363281 38.292969 29.363281 38.300781 29.371094 L 38.316406 29.378906 C 38.324219 29.386719 38.34375 29.394531 38.351562 29.402344 C 38.390625 29.433594 38.429688 29.476562 38.453125 29.523438 C 38.511719 29.621094 38.550781 29.738281 38.550781 29.859375 C 38.566406 30.109375 38.460938 30.355469 38.285156 30.535156 C 38.109375 30.710938 37.851562 30.816406 37.570312 30.855469 C 37.429688 30.878906 37.285156 30.878906 37.132812 30.871094 L 36.898438 30.855469 C 36.828125 30.847656 36.746094 30.832031 36.675781 30.824219 C 36.378906 30.765625 36.089844 30.671875 35.855469 30.484375 C 35.625 30.300781 35.445312 30.027344 35.390625 29.699219 C 35.328125 30.027344 35.429688 30.398438 35.664062 30.679688 C 35.6875 30.71875 35.726562 30.742188 35.75 30.78125 C 35.785156 30.816406 35.816406 30.847656 35.847656 30.878906 L 35.960938 30.957031 L 36.015625 31 L 36.074219 31.03125 C 36.152344 31.078125 36.234375 31.128906 36.3125 31.152344 C 36.394531 31.183594 36.480469 31.222656 36.5625 31.246094 C 36.648438 31.273438 36.730469 31.296875 36.816406 31.320312 L 37.074219 31.359375 C 37.25 31.382812 37.4375 31.390625 37.621094 31.375 C 37.804688 31.359375 37.988281 31.320312 38.171875 31.246094 C 38.359375 31.175781 38.527344 31.0625 38.671875 30.917969 C 38.816406 30.773438 38.925781 30.597656 39 30.40625 C 39.0625 30.214844 39.097656 30.003906 39.070312 29.804688 C 39.046875 29.601562 38.984375 29.394531 38.847656 29.226562 C 38.785156 29.136719 38.703125 29.066406 38.605469 29 C 38.582031 28.984375 38.558594 28.96875 38.535156 28.960938 L 38.460938 28.929688 L 38.375 28.890625 C 38.261719 28.824219 38.148438 28.738281 38.054688 28.625 C 37.957031 28.511719 37.859375 28.390625 37.78125 28.257812 C 37.621094 28.007812 37.484375 27.710938 37.363281 27.398438 Z M 37.363281 27.398438 " fill-opacity="1" fill-rule="nonzero"/><path fill="#4e1d0f" d="M 36.578125 31.015625 C 36.578125 31.015625 34.675781 29.78125 32.566406 31.457031 C 30.449219 33.132812 27.304688 31.855469 27.304688 31.855469 C 27.304688 31.855469 28.902344 35.25 32.824219 35.332031 C 36.746094 35.410156 37.878906 33.652344 37.636719 31.398438 Z M 36.578125 31.015625 " fill-opacity="1" fill-rule="nonzero"/><path fill="#4e1d0f" d="M 38.085938 31.015625 C 38.085938 31.015625 39.503906 29.78125 41.078125 31.457031 C 42.65625 33.132812 45 31.855469 45 31.855469 C 45 31.855469 43.8125 35.25 40.886719 35.332031 C 37.957031 35.410156 37.113281 33.652344 37.292969 31.398438 Z M 38.085938 31.015625 " fill-opacity="1" fill-rule="nonzero"/><path fill="#4e1d0f" d="M 60.375 31.023438 L 59.445312 32.578125 L 61.121094 31.152344 L 62.042969 31.023438 L 60.746094 33.011719 L 62.621094 31.023438 L 63.199219 31.152344 L 61.835938 33.324219 L 63.855469 31.023438 Z M 60.375 31.023438 " fill-opacity="1" fill-rule="nonzero"/><path fill="#4e1d0f" d="M 58.25 32.820312 C 58.25 32.820312 59.332031 32.714844 60.703125 33.132812 C 62.074219 33.550781 62.695312 34.199219 62.695312 34.199219 C 62.695312 34.199219 62.382812 33.027344 60.703125 32.644531 C 59.027344 32.25 58.25 32.820312 58.25 32.820312 Z M 58.25 32.820312 " fill-opacity="1" fill-rule="nonzero"/><path fill="#4e1d0f" d="M 60.898438 41.660156 C 60.898438 41.660156 62.371094 42.667969 62.46875 44.03125 C 62.46875 44.03125 60.375 44.160156 60.304688 43.871094 C 60.230469 43.574219 60.898438 41.660156 60.898438 41.660156 Z M 60.898438 41.660156 " fill-opacity="1" fill-rule="nonzero"/><path fill="#4e1d0f" d="M 28.285156 23.554688 C 28.285156 23.554688 26.929688 24.863281 26.4375 27.398438 C 25.949219 29.933594 26.175781 31.265625 26.175781 31.265625 L 25.117188 32.457031 C 25.117188 32.457031 23.625 30.421875 23.800781 27.605469 L 24.683594 25.953125 Z M 28.285156 23.554688 " fill-opacity="1" fill-rule="nonzero"/><path fill="#4e1d0f" d="M 27.761719 19.34375 C 27.761719 19.34375 26.03125 19.9375 23.558594 21.863281 C 21.089844 23.789062 20.488281 25.007812 20.488281 25.007812 L 19.789062 22.410156 C 19.789062 22.410156 22.21875 19.929688 27.761719 19.34375 Z M 27.761719 19.34375 " fill-opacity="1" fill-rule="nonzero"/><path fill="#4e1d0f" d="M 41.808594 12.632812 C 41.808594 12.632812 42.136719 13.746094 41.511719 15.421875 C 40.886719 17.097656 38.9375 18.132812 38.9375 18.132812 L 40.410156 19.121094 C 40.410156 19.121094 43.097656 17.675781 41.808594 12.632812 Z M 41.808594 12.632812 " fill-opacity="1" fill-rule="nonzero"/><path fill="#4e1d0f" d="M 37.554688 7.496094 L 36.816406 7.152344 C 36.816406 7.152344 38.039062 9.101562 37.933594 11.058594 C 37.828125 13.015625 37.5 13.664062 37.5 13.664062 C 37.5 13.664062 39.945312 9.589844 37.554688 7.496094 Z M 37.554688 7.496094 " fill-opacity="1" fill-rule="nonzero"/><path fill="#4e1d0f" d="M 16.109375 11.84375 C 16.109375 11.84375 15.484375 14.554688 16.300781 15.992188 C 17.117188 17.425781 18.144531 17.941406 18.144531 17.941406 C 18.144531 17.941406 15.660156 17.324219 15.167969 15.453125 C 14.679688 13.585938 16.109375 11.84375 16.109375 11.84375 Z M 16.109375 11.84375 " fill-opacity="1" fill-rule="nonzero"/><path fill="#4e1d0f" d="M 22.675781 21.46875 L 22.398438 20.75 C 22.398438 20.75 21.457031 21.46875 19.550781 21.582031 C 17.640625 21.695312 16.71875 20.363281 16.71875 20.363281 C 16.71875 20.363281 17.085938 21.605469 18.136719 22.25 C 19.1875 22.890625 20.609375 22.816406 20.609375 22.816406 Z M 22.675781 21.46875 " fill-opacity="1" fill-rule="nonzero"/><path fill="#4e1d0f" d="M 23.960938 6.359375 C 23.960938 6.359375 26.367188 6.429688 27.28125 7.769531 C 28.195312 9.109375 27.996094 10.328125 27.996094 10.328125 C 27.996094 10.328125 28.765625 9.191406 28.277344 7.625 C 27.785156 6.0625 25.550781 5.941406 25.550781 5.941406 Z M 23.960938 6.359375 " fill-opacity="1" fill-rule="nonzero"/><path fill="#4e1d0f" d="M 30.152344 51.476562 C 30.152344 51.710938 30.070312 51.90625 29.90625 52.070312 C 29.742188 52.238281 29.542969 52.320312 29.3125 52.320312 C 29.078125 52.320312 28.878906 52.238281 28.714844 52.070312 C 28.550781 51.90625 28.46875 51.710938 28.46875 51.476562 C 28.46875 51.242188 28.550781 51.046875 28.714844 50.882812 C 28.878906 50.714844 29.078125 50.632812 29.3125 50.632812 C 29.542969 50.632812 29.742188 50.714844 29.90625 50.882812 C 30.070312 51.046875 30.152344 51.242188 30.152344 51.476562 Z M 30.152344 51.476562 " fill-opacity="1" fill-rule="nonzero"/><path fill="#4e1d0f" d="M 32.527344 57.523438 C 32.527344 57.757812 32.445312 57.957031 32.28125 58.121094 C 32.117188 58.285156 31.917969 58.367188 31.683594 58.367188 C 31.453125 58.367188 31.253906 58.285156 31.089844 58.121094 C 30.925781 57.957031 30.84375 57.757812 30.84375 57.523438 C 30.84375 57.292969 30.925781 57.09375 31.089844 56.929688 C 31.253906 56.765625 31.453125 56.683594 31.683594 56.683594 C 31.917969 56.683594 32.117188 56.765625 32.28125 56.929688 C 32.445312 57.09375 32.527344 57.292969 32.527344 57.523438 Z M 32.527344 57.523438 " fill-opacity="1" fill-rule="nonzero"/><path fill="#4e1d0f" d="M 33.371094 64.476562 C 33.371094 64.710938 33.285156 64.910156 33.121094 65.074219 C 32.957031 65.238281 32.757812 65.320312 32.527344 65.320312 C 32.292969 65.320312 32.097656 65.238281 31.929688 65.074219 C 31.765625 64.910156 31.683594 64.710938 31.683594 64.476562 C 31.683594 64.246094 31.765625 64.046875 31.929688 63.882812 C 32.097656 63.71875 32.292969 63.636719 32.527344 63.636719 C 32.757812 63.636719 32.957031 63.71875 33.121094 63.882812 C 33.285156 64.046875 33.371094 64.246094 33.371094 64.476562 Z M 33.371094 64.476562 " fill-opacity="1" fill-rule="nonzero"/><path fill="#4e1d0f" d="M 21.523438 29.707031 C 21.523438 29.707031 21.304688 28.464844 22.125 28.191406 C 22.949219 27.917969 23.785156 28.519531 24.242188 29.5625 C 24.699219 30.605469 24.191406 30.582031 24.191406 30.582031 C 24.191406 30.582031 23.640625 28.976562 22.765625 28.832031 C 21.890625 28.6875 21.523438 29.707031 21.523438 29.707031 Z M 21.523438 29.707031 " fill-opacity="1" fill-rule="nonzero"/><path fill="#4e1d0f" d="M 51.152344 45.171875 C 51.152344 45.171875 50.613281 46.90625 50.566406 48.171875 C 50.519531 49.4375 51.007812 50.730469 51.007812 50.730469 C 51.007812 50.730469 49.667969 49.117188 49.714844 47.488281 Z M 51.152344 45.171875 " fill-opacity="1" fill-rule="nonzero"/><path fill="#4e1d0f" d="M 33.625 48.917969 C 33.625 48.917969 33.746094 49.671875 33.335938 50.820312 C 32.929688 51.964844 32.65625 52.695312 32.65625 52.695312 C 32.65625 52.695312 33.25 52.046875 33.648438 51.042969 C 34.050781 50.039062 34.171875 49.167969 34.171875 49.167969 Z M 33.625 48.917969 " fill-opacity="1" fill-rule="nonzero"/><path fill="#4e1d0f" d="M 34.859375 48.863281 C 34.859375 48.863281 35.625 48.40625 35.558594 47.210938 C 35.503906 46.015625 34.5625 44.9375 34.5625 44.9375 C 34.5625 44.9375 35.953125 45.757812 36.265625 47.105469 C 36.578125 48.460938 34.859375 48.863281 34.859375 48.863281 Z M 34.859375 48.863281 " fill-opacity="1" fill-rule="nonzero"/><path fill="#4e1d0f" d="M 37.097656 47.113281 C 37.097656 47.113281 37.894531 47.945312 39.375 48.558594 C 40.859375 49.167969 41.742188 49.480469 41.742188 49.480469 C 41.742188 49.480469 40.164062 49.414062 38.894531 48.863281 C 37.628906 48.308594 36.90625 47.84375 36.90625 47.84375 Z M 37.097656 47.113281 " fill-opacity="1" fill-rule="nonzero"/><path fill="#4e1d0f" d="M 19.1875 42.796875 C 19.1875 42.796875 21.203125 42.363281 23.589844 42.683594 C 25.980469 43 28.644531 44.152344 28.644531 44.152344 C 28.644531 44.152344 25.195312 43.246094 22.773438 43.222656 C 20.351562 43.199219 18.738281 43.34375 18.738281 43.34375 Z M 19.1875 42.796875 " fill-opacity="1" fill-rule="nonzero"/><path fill="#4e1d0f" d="M 39.089844 38.59375 C 39.089844 38.59375 37.628906 39.507812 35.183594 39.542969 C 32.734375 39.574219 31.539062 38.921875 31.539062 38.921875 C 31.539062 38.921875 33.242188 40.414062 35.566406 40.367188 C 37.886719 40.3125 39.089844 38.59375 39.089844 38.59375 Z M 39.089844 38.59375 " fill-opacity="1" fill-rule="nonzero"/><g fill="#ffffff" fill-opacity="1"><g transform="translate(-0.812291, 74.406738)"><g><path d="M 0.578125 0.015625 C 0.484375 0.015625 0.398438 -0.00390625 0.328125 -0.046875 C 0.253906 -0.0859375 0.195312 -0.148438 0.15625 -0.234375 C 0.125 -0.328125 0.109375 -0.441406 0.109375 -0.578125 C 0.109375 -0.710938 0.128906 -0.820312 0.171875 -0.90625 C 0.210938 -1 0.269531 -1.066406 0.34375 -1.109375 C 0.414062 -1.160156 0.5 -1.1875 0.59375 -1.1875 C 0.664062 -1.1875 0.726562 -1.171875 0.78125 -1.140625 C 0.832031 -1.117188 0.875 -1.082031 0.90625 -1.03125 L 0.9375 -1.03125 L 0.9375 -1.625 L 1.21875 -1.625 L 1.21875 0 L 0.9375 0 L 0.9375 -0.15625 L 0.90625 -0.15625 C 0.875 -0.101562 0.828125 -0.0625 0.765625 -0.03125 C 0.710938 0 0.648438 0.015625 0.578125 0.015625 Z M 0.671875 -0.21875 C 0.753906 -0.21875 0.816406 -0.25 0.859375 -0.3125 C 0.910156 -0.375 0.9375 -0.460938 0.9375 -0.578125 C 0.9375 -0.703125 0.910156 -0.789062 0.859375 -0.84375 C 0.816406 -0.90625 0.753906 -0.9375 0.671875 -0.9375 C 0.585938 -0.9375 0.519531 -0.90625 0.46875 -0.84375 C 0.425781 -0.789062 0.40625 -0.703125 0.40625 -0.578125 C 0.40625 -0.453125 0.425781 -0.359375 0.46875 -0.296875 C 0.519531 -0.242188 0.585938 -0.21875 0.671875 -0.21875 Z M 0.671875 -0.21875 "/></g></g></g><g fill="#ffffff" fill-opacity="1"><g transform="translate(0.578905, 74.406738)"><g><path d="M 0.3125 -1.296875 C 0.257812 -1.296875 0.21875 -1.3125 0.1875 -1.34375 C 0.15625 -1.375 0.140625 -1.414062 0.140625 -1.46875 C 0.140625 -1.519531 0.15625 -1.5625 0.1875 -1.59375 C 0.21875 -1.625 0.257812 -1.640625 0.3125 -1.640625 C 0.34375 -1.640625 0.375 -1.628906 0.40625 -1.609375 C 0.4375 -1.597656 0.457031 -1.578125 0.46875 -1.546875 C 0.488281 -1.523438 0.5 -1.5 0.5 -1.46875 C 0.5 -1.4375 0.488281 -1.40625 0.46875 -1.375 C 0.457031 -1.351562 0.4375 -1.332031 0.40625 -1.3125 C 0.375 -1.300781 0.34375 -1.296875 0.3125 -1.296875 Z M 0.171875 0 L 0.171875 -1.15625 L 0.453125 -1.15625 L 0.453125 0 Z M 0.171875 0 "/></g></g></g><g fill="#ffffff" fill-opacity="1"><g transform="translate(1.203996, 74.406738)"><g><path d="M 0.171875 0 L 0.171875 -1.15625 L 0.453125 -1.15625 L 0.453125 -0.984375 L 0.46875 -0.984375 C 0.539062 -1.117188 0.660156 -1.1875 0.828125 -1.1875 C 0.953125 -1.1875 1.046875 -1.148438 1.109375 -1.078125 C 1.171875 -1.003906 1.203125 -0.894531 1.203125 -0.75 L 1.203125 0 L 0.921875 0 L 0.921875 -0.71875 C 0.921875 -0.789062 0.90625 -0.84375 0.875 -0.875 C 0.84375 -0.914062 0.789062 -0.9375 0.71875 -0.9375 C 0.632812 -0.9375 0.566406 -0.910156 0.515625 -0.859375 C 0.472656 -0.804688 0.453125 -0.71875 0.453125 -0.59375 L 0.453125 0 Z M 0.171875 0 "/></g></g></g><g fill="#ffffff" fill-opacity="1"><g transform="translate(2.563621, 74.406738)"><g><path d="M 0.609375 0.5 C 0.410156 0.5 0.265625 0.46875 0.171875 0.40625 C 0.0859375 0.351562 0.046875 0.273438 0.046875 0.171875 C 0.046875 0.109375 0.0625 0.0546875 0.09375 0.015625 C 0.132812 -0.015625 0.191406 -0.0390625 0.265625 -0.0625 L 0.265625 -0.078125 C 0.222656 -0.0976562 0.191406 -0.125 0.171875 -0.15625 C 0.160156 -0.1875 0.15625 -0.222656 0.15625 -0.265625 C 0.15625 -0.347656 0.21875 -0.410156 0.34375 -0.453125 L 0.34375 -0.46875 C 0.28125 -0.5 0.234375 -0.539062 0.203125 -0.59375 C 0.171875 -0.65625 0.15625 -0.722656 0.15625 -0.796875 C 0.15625 -0.867188 0.171875 -0.929688 0.203125 -0.984375 C 0.234375 -1.046875 0.285156 -1.09375 0.359375 -1.125 C 0.429688 -1.164062 0.515625 -1.1875 0.609375 -1.1875 C 0.703125 -1.1875 0.78125 -1.171875 0.84375 -1.140625 C 0.875 -1.179688 0.894531 -1.238281 0.90625 -1.3125 L 0.921875 -1.328125 L 1.125 -1.28125 C 1.125 -1.21875 1.109375 -1.164062 1.078125 -1.125 C 1.054688 -1.09375 1.019531 -1.0625 0.96875 -1.03125 L 0.96875 -1.015625 C 1.03125 -0.953125 1.0625 -0.867188 1.0625 -0.765625 C 1.0625 -0.691406 1.039062 -0.628906 1 -0.578125 C 0.96875 -0.523438 0.914062 -0.476562 0.84375 -0.4375 C 0.78125 -0.40625 0.703125 -0.390625 0.609375 -0.390625 L 0.5625 -0.390625 C 0.53125 -0.390625 0.507812 -0.390625 0.5 -0.390625 C 0.476562 -0.390625 0.457031 -0.382812 0.4375 -0.375 C 0.425781 -0.363281 0.421875 -0.34375 0.421875 -0.3125 C 0.421875 -0.289062 0.425781 -0.269531 0.4375 -0.25 C 0.457031 -0.238281 0.488281 -0.234375 0.53125 -0.234375 L 0.796875 -0.234375 C 1.046875 -0.222656 1.171875 -0.113281 1.171875 0.09375 C 1.171875 0.175781 1.148438 0.242188 1.109375 0.296875 C 1.078125 0.359375 1.019531 0.40625 0.9375 0.4375 C 0.851562 0.476562 0.742188 0.5 0.609375 0.5 Z M 0.609375 -0.59375 C 0.660156 -0.59375 0.703125 -0.609375 0.734375 -0.640625 C 0.765625 -0.679688 0.78125 -0.726562 0.78125 -0.78125 C 0.78125 -0.84375 0.765625 -0.890625 0.734375 -0.921875 C 0.703125 -0.960938 0.660156 -0.984375 0.609375 -0.984375 C 0.546875 -0.984375 0.5 -0.960938 0.46875 -0.921875 C 0.4375 -0.890625 0.421875 -0.84375 0.421875 -0.78125 C 0.421875 -0.726562 0.4375 -0.679688 0.46875 -0.640625 C 0.5 -0.609375 0.546875 -0.59375 0.609375 -0.59375 Z M 0.609375 0.28125 C 0.703125 0.28125 0.769531 0.265625 0.8125 0.234375 C 0.863281 0.210938 0.890625 0.175781 0.890625 0.125 C 0.890625 0.09375 0.875 0.0664062 0.84375 0.046875 C 0.820312 0.0234375 0.789062 0.015625 0.75 0.015625 L 0.515625 0.015625 C 0.503906 0.015625 0.492188 0.015625 0.484375 0.015625 C 0.484375 0.015625 0.476562 0.015625 0.46875 0.015625 C 0.414062 0.015625 0.378906 0.0234375 0.359375 0.046875 C 0.335938 0.0664062 0.328125 0.09375 0.328125 0.125 C 0.328125 0.175781 0.347656 0.210938 0.390625 0.234375 C 0.441406 0.265625 0.515625 0.28125 0.609375 0.28125 Z M 0.609375 0.28125 "/></g></g></g></svg>